<svg xmlns="http://www.w3.org/2000/svg" viewBox="0 0 24 24" role="img" aria-hidden="true">
  <path fill="#1d2329" d="M12 .5a12 12 0 0 0-3.79 23.39c.6.11.82-.26.82-.58v-2.24c-3.34.73-4.04-1.41-4.04-1.41-.55-1.38-1.33-1.74-1.33-1.74-1.08-.74.08-.72.08-.72 1.2.08 1.83 1.23 1.83 1.23 1.06 1.82 2.78 1.29 3.45.99.11-.77.42-1.29.76-1.58-2.66-.3-5.47-1.33-5.47-5.92 0-1.31.47-2.38 1.24-3.22-.12-.3-.54-1.52.12-3.17 0 0 1.01-.33 3.31 1.23a11.44 11.44 0 0 1 6.02 0c2.29-1.56 3.3-1.23 3.3-1.23.66 1.65.24 2.87.12 3.17.77.84 1.23 1.91 1.23 3.22 0 4.6-2.81 5.61-5.49 5.91.43.37.81 1.11.81 2.24v3.32c0 .32.22.7.83.58A12 12 0 0 0 12 .5Z"/>
</svg>
